HIERARCHY
ROOT root
{
	OFFSET	0	13.1	24.9
	CHANNELS 6  Xposition Yposition Zposition Xrotation Yrotation Zrotation
	JOINT spine_1
	{
		OFFSET	0	9.99999	0
		CHANNELS 3  Xrotation Yrotation Zrotation
		JOINT spine_2
		{
			OFFSET	0	112	-10
			CHANNELS 3  Xrotation Yrotation Zrotation
			JOINT spine_3
			{
				OFFSET	0	206.5	19.3
				CHANNELS 3  Xrotation Yrotation Zrotation
				JOINT spine_4
				{
					OFFSET	0	110.4	14.6
					CHANNELS 3  Xrotation Yrotation Zrotation
					JOINT neck_1
					{
						OFFSET	0	71.8	-50.3
						CHANNELS 3  Xrotation Yrotation Zrotation
						JOINT neck_2
						{
							OFFSET	0	86.2	-25.8
							CHANNELS 3  Xrotation Yrotation Zrotation
							JOINT head_ee
							{
								OFFSET	0	179.8	-8.7
								CHANNELS 3  Xrotation Yrotation Zrotation
								End Site
								{
									OFFSET	1	0	0
								}
							}
						}
					}
					JOINT left_clavicle
					{
						OFFSET	-43.2	22.4	-70.8
						CHANNELS 3  Xrotation Yrotation Zrotation
						JOINT left_shoulder
						{
							OFFSET	-93.9	-5.79999	48.7
							CHANNELS 3  Xrotation Yrotation Zrotation
							JOINT left_elbow
							{
								OFFSET	-291.4	-30.8	15.2
								CHANNELS 3  Xrotation Yrotation Zrotation
								JOINT left_lowarm_twist
								{
									OFFSET	-110.7	-3.89999	13.6
									CHANNELS 3  Xrotation Yrotation Zrotation
									JOINT left_hand
									{
										OFFSET	-110.7	-3.89999	13.6
										CHANNELS 3  Xrotation Yrotation Zrotation
										JOINT left_ee
										{
											OFFSET	-80.8	-5.10001	12.1
											CHANNELS 3  Xrotation Yrotation Zrotation
											End Site
											{
												OFFSET	1	0	0
											}
										}
									}
								}
							}
						}
					}
					JOINT right_clavicle
					{
						OFFSET	43.2	22.4	-70.8
						CHANNELS 3  Xrotation Yrotation Zrotation
						JOINT right_shoulder
						{
							OFFSET	93.9	-5.79999	48.7
							CHANNELS 3  Xrotation Yrotation Zrotation
							JOINT right_elbow
							{
								OFFSET	291.4	-30.8	15.2
								CHANNELS 3  Xrotation Yrotation Zrotation
								JOINT right_lowarm_twist
								{
									OFFSET	110.7	-3.89999	13.6
									CHANNELS 3  Xrotation Yrotation Zrotation
									JOINT right_hand
									{
										OFFSET	110.7	-3.89999	13.6
										CHANNELS 3  Xrotation Yrotation Zrotation
										JOINT right_ee
										{
											OFFSET	80.8	-5.10001	12.1
											CHANNELS 3  Xrotation Yrotation Zrotation
											End Site
											{
												OFFSET	1	0	0
											}
										}
									}
								}
							}
						}
					}
				}
			}
		}
	}
	JOINT left_hip
	{
		OFFSET	-82.8	-127.5	0.300001
		CHANNELS 3  Xrotation Yrotation Zrotation
		JOINT left_knee
		{
			OFFSET	-28.2	-396.7	2.2
			CHANNELS 3  Xrotation Yrotation Zrotation
			JOINT left_ankle
			{
				OFFSET	-11.7	-411.3	35.4
				CHANNELS 3  Xrotation Yrotation Zrotation
				JOINT left_toes
				{
					OFFSET	0	-60	-88.6
					CHANNELS 3  Xrotation Yrotation Zrotation
					JOINT left_foot_ee
					{
						OFFSET	-22.5	-16.5	-42.2
						CHANNELS 3  Xrotation Yrotation Zrotation
						End Site
						{
							OFFSET	1	0	0
						}
					}
				}
			}
		}
	}
	JOINT right_hip
	{
		OFFSET	82.8	-127.5	0.300001
		CHANNELS 3  Xrotation Yrotation Zrotation
		JOINT right_knee
		{
			OFFSET	28.2	-396.7	2.2
			CHANNELS 3  Xrotation Yrotation Zrotation
			JOINT right_ankle
			{
				OFFSET	11.7	-411.3	35.4
				CHANNELS 3  Xrotation Yrotation Zrotation
				JOINT right_toes
				{
					OFFSET	0	-60	-88.6
					CHANNELS 3  Xrotation Yrotation Zrotation
					JOINT right_foot_ee
					{
						OFFSET	22.5	-16.5	-42.2
						CHANNELS 3  Xrotation Yrotation Zrotation
						End Site
						{
							OFFSET	1	0	0
						}
					}
				}
			}
		}
	}
}
MOTION
Frames: 13
Frame Time: 0.02
391.555 721.904 -1204.45 -172.7931043 -0.927518044627 -179.889415022 3.06343 0.14923 0.30873 3.06348 0.129283 0.3176 3.06418 0.0776098 0.334006 3.06405 0.129386 0.317558 -13.2131 -7.06321 4.9817 -13.3261 -16.5424 2.60361 -0.0 0.0 -0.0 -3.2396 22.9372 -1.83307 -18.5948 -17.2571 71.0147 1.26993 -32.172 0.366224 -9.15744 -0.411171 1.09493 -2.74503 8.94862 -14.123 -0.0 0.0 -0.0 7.21272 15.9093 -13.5357 -8.99621 21.268 -65.4111 0.518482 14.4047 -0.0655216 -0.948636 0.034389 -0.116264 1.2586 -7.73271 -11.4615 0.0 0.0 0.0 24.5271 -2.914 -11.0594 -42.1911 -0.612017 6.30226 25.59 -1.45025 -3.43241 -6.17236 0.0 0.0 -0.0 0.0 -0.0 11.398 33.2263 -1.80894 -11.5487 -0.300612 -1.74384 34.4502 -26.8337 4.6576 -13.5343 0.0 0.0 0.0 0.0 0.0 
387.083413432 721.498 -1203.23875165 -171.607863496 -4.5983761551 -179.519715703 3.1157 0.151619 0.24608 3.11573 0.135653 0.255229 3.11633 0.0939795 0.273334 3.11625 0.135968 0.255061 -12.8519 -8.69952 1.60035 -13.0423 -17.5459 -1.08278 -0.0 0.0 -0.0 -3.21971 22.9668 -1.79931 -19.3231 -18.8166 70.4606 1.19658 -30.6563 0.327991 -8.06833 -0.353148 0.968284 -2.4534 8.25383 -12.5394 -0.0 0.0 -0.0 7.36329 16.3867 -13.8318 -8.40503 21.0033 -64.7876 0.4978 13.8527 -0.060473 0.210916 -0.00738352 0.0259248 0.939281 -8.73269 -9.73483 0.0 0.0 0.0 24.4347 -1.34743 -11.3923 -35.5253 -0.206898 5.36175 18.5026 -0.594168 -2.56734 -5.32373 0.0 0.0 -0.0 0.0 -0.0 11.7074 30.9563 -0.897532 -10.6239 -0.289558 -1.60239 39.1073 -26.1447 5.11907 -14.7027 0.0 0.0 0.0 0.0 0.0 
385.3225485 721.832 -1203.49722023 -168.190390255 -14.7602119541 -177.123549406 3.69594 0.277897 0.755996 3.69623 0.22923 0.772146 3.69918 0.113522 0.797412 3.69837 0.23803 0.769478 -10.7275 -11.4848 -3.40031 -10.8533 -19.4465 -6.32453 -0.0 0.0 -0.0 -2.82895 23.1012 -1.22996 -20.5565 -22.2924 69.2951 0.886012 -23.6966 0.185881 -5.95457 -0.247471 0.719497 -2.12738 11.4443 -8.81928 -0.0 0.0 -0.0 7.63758 15.8411 -14.4619 -7.07376 20.8846 -62.8114 0.676702 18.5322 -0.110404 3.3454 -0.105799 0.414144 0.578735 -9.88252 -7.82693 0.0 0.0 0.0 25.3513 1.32664 -11.1987 -25.7708 0.182685 3.91733 9.51967 0.751961 -1.36602 -2.21297 0.0 0.0 -0.0 0.0 -0.0 14.2591 26.7147 -1.20868 -7.43808 -0.234025 -1.11674 42.9418 -25.3461 5.45356 -14.5489 0.0 0.0 0.0 0.0 0.0 
385.302777279 721.832 -1203.63701043 -168.256324402 -13.5041946508 -177.393577447 3.69594 0.277897 0.755996 3.69623 0.22923 0.772146 3.69918 0.113522 0.797412 3.69837 0.23803 0.769478 -10.7275 -11.4848 -3.40031 -10.8533 -19.4465 -6.32453 -0.0 0.0 -0.0 -2.82895 23.1012 -1.22996 -20.5565 -22.2924 69.2951 0.886012 -23.6966 0.185881 -5.95457 -0.247471 0.719497 -2.12738 11.4443 -8.81928 -0.0 0.0 -0.0 7.63758 15.8411 -14.4619 -7.07376 20.8846 -62.8114 0.676702 18.5322 -0.110404 3.3454 -0.105799 0.414144 0.578735 -9.88252 -7.82693 0.0 0.0 0.0 25.3513 1.32664 -11.1987 -25.7708 0.182685 3.91733 9.51967 0.751961 -1.36602 -2.21297 0.0 0.0 -0.0 0.0 -0.0 14.2591 26.7147 -1.20868 -7.43808 -0.234025 -1.11674 42.9418 -25.3461 5.45356 -14.5489 0.0 0.0 0.0 0.0 0.0 
389.020217138 725.764 -1203.30040362 -167.529395373 -17.6667565766 -176.806143559 3.69007 0.353751 0.833519 3.6904 0.299997 0.854338 3.69472 0.171411 0.889104 3.69375 0.309672 0.850879 -9.71375 -12.4519 -4.56159 -9.78587 -20.3469 -7.52301 -0.0 0.0 -0.0 -2.80361 23.3194 -1.15291 -19.8406 -23.7656 70.5582 0.702313 -19.1831 0.118682 -5.06999 -0.205989 0.614273 -2.05496 12.8667 -7.65776 -0.0 0.0 -0.0 7.80752 14.3923 -14.9131 -5.95295 21.2283 -61.4963 0.851091 22.8604 -0.17208 4.47515 -0.136039 0.555288 0.586738 -8.49056 -7.33729 0.0 0.0 0.0 27.9404 2.46867 -9.76106 -25.0799 0.200863 3.81287 8.24878 2.3572 -1.18514 -1.27109 0.0 0.0 -0.0 0.0 -0.0 15.0898 26.1479 -1.55895 -6.33073 -0.208408 -0.948736 42.3944 -25.294 5.4021 -13.6227 0.0 0.0 0.0 0.0 0.0 
392.372581506 719.745 -1205.95583182 -165.572450423 -21.5846150081 -175.432088143 3.95732 0.33809 0.835062 3.95767 0.284269 0.854881 3.96172 0.159906 0.886598 3.96075 0.297916 0.850222 -9.25474 -13.1361 -4.86897 -9.31091 -21.3505 -7.91137 -0.0 0.0 -0.0 -2.91847 23.3317 -1.30888 -19.5135 -24.7679 71.8068 0.623517 -17.1646 0.0941018 -4.5935 -0.18432 0.557333 -1.99465 13.6625 -6.88743 -0.0 0.0 -0.0 7.90465 13.9645 -15.1457 -4.96544 21.6882 -60.1606 1.04165 27.2931 -0.252904 5.20558 -0.154106 0.646845 0.630039 -7.2001 -7.11403 0.0 0.0 0.0 30.461 3.40014 -11.486 -26.1474 0.172246 3.97418 7.6524 3.28812 -1.10002 -0.626294 0.0 0.0 -0.0 0.0 -0.0 13.4446 25.8674 2.97036 -5.96554 -0.199247 -0.893441 42.1629 -25.5608 5.39034 -13.1077 0.0 0.0 0.0 0.0 0.0 
407.416664736 716.531 -1203.71515593 -165.936800522 -23.0443594332 -176.848738337 4.12342 0.333572 1.22401 4.12422 0.255015 1.24275 4.12926 0.0795337 1.26615 4.12713 0.278485 1.2377 -8.66492 -16.3696 -3.65064 -8.79433 -28.1813 -7.41056 -0.0 0.0 -0.0 -2.53526 23.7712 -0.699836 -19.6401 -25.2385 73.6918 0.42815 -11.9748 0.0449053 -2.41477 -0.0913168 0.294805 -2.05929 17.9953 -5.16534 -0.0 0.0 -0.0 8.15586 13.8955 -15.694 -4.2125 21.9877 -59.8839 1.25111 31.7878 -0.356257 4.89588 -0.146588 0.607997 0.823979 -5.14512 -7.5821 0.0 0.0 0.0 34.9306 6.07209 -8.78548 -37.6082 -0.321656 5.66052 8.42305 3.6493 -1.20709 2.99912 -0.0 -0.0 -0.0 0.0 -0.0 11.8464 25.2354 3.73301 -6.36478 -0.209244 -0.953895 42.5523 -25.0233 5.40701 -12.9545 0.0 0.0 0.0 0.0 0.0 
471.764928564 710.886 -1176.71003315 -166.030088119 -27.3245253781 -175.096510674 4.2399 0.49897 1.3074 4.24076 0.414774 1.33649 4.24988 0.227643 1.38072 4.2475 0.442827 1.32746 -4.87081 -18.2549 2.99298 -4.47825 -35.8328 -0.0371558 -0.0 0.0 -0.0 -2.6184 23.7105 -0.824588 -21.4386 -30.1031 71.5254 0.595887 -16.4459 0.0861133 1.9131 0.0634666 -0.236093 0.363868 29.0192 13.3582 -0.0 0.0 -0.0 9.67321 14.7057 -18.9813 -5.43349 19.1222 -60.6058 1.48705 36.3745 -0.488574 8.83525 -0.226493 1.10477 3.33452 12.6492 -17.3217 0.0 0.0 0.0 27.3059 -3.56083 -3.2195 -35.1864 -0.189261 5.31277 15.0998 4.68684 -2.10829 17.0096 -0.0 -0.0 -0.0 0.0 -0.0 15.3676 -8.13564 7.84543 -8.85408 -0.262042 -1.33221 38.8605 -26.4383 5.10463 -6.41856 0.0 0.0 0.0 0.0 0.0 
471.779610643 710.886 -1176.75252271 -166.02629977 -27.3539759898 -175.088261831 4.2399 0.49897 1.3074 4.24076 0.414774 1.33649 4.24988 0.227643 1.38072 4.2475 0.442827 1.32746 -4.87081 -18.2549 2.99298 -4.47825 -35.8328 -0.0371558 -0.0 0.0 -0.0 -2.6184 23.7105 -0.824588 -21.4386 -30.1031 71.5254 0.595887 -16.4459 0.0861133 1.9131 0.0634666 -0.236093 0.363868 29.0192 13.3582 -0.0 0.0 -0.0 9.67321 14.7057 -18.9813 -5.43349 19.1222 -60.6058 1.48705 36.3745 -0.488574 8.83525 -0.226493 1.10477 3.33452 12.6492 -17.3217 0.0 0.0 0.0 27.3059 -3.56083 -3.2195 -35.1864 -0.189261 5.31277 15.0998 4.68684 -2.10829 17.0096 -0.0 -0.0 -0.0 0.0 -0.0 15.3676 -8.13564 7.84543 -8.85408 -0.262042 -1.33221 38.8605 -26.4383 5.10463 -6.41856 0.0 0.0 0.0 0.0 0.0 
490.138587283 700.243 -1166.47098812 -165.705386623 -25.0201052609 -174.847757307 4.2501 0.438833 1.19456 4.25082 0.361937 1.22006 4.25806 0.191429 1.25813 4.25606 0.38771 1.21212 -4.92734 -18.1766 2.99364 -4.54677 -35.6963 -0.0433068 -0.0 0.0 -0.0 -3.03792 23.4244 -1.45516 -20.0258 -30.3699 72.5891 0.573664 -15.864 0.0799298 1.59674 0.0535166 -0.196909 0.255115 28.9678 12.739 -0.0 0.0 -0.0 9.74924 14.5699 -19.1553 -5.71134 18.9355 -60.7859 1.46977 36.0554 -0.478368 8.30388 -0.217711 1.03747 3.12298 12.8458 -15.7472 0.0 0.0 0.0 27.0065 -1.51726 -3.30106 -35.164 -0.188108 5.30953 14.0287 2.54608 -1.97236 18.4322 -0.0 -0.0 -0.0 0.0 -0.0 15.7811 -12.8717 8.35176 -6.62192 -0.215459 -0.992867 38.9965 -25.6503 5.09153 -7.49182 0.0 0.0 0.0 0.0 0.0 
506.596858853 701.038 -1158.32331393 -167.868319824 -23.0735836165 -175.443227926 3.64201 0.415704 1.33695 3.64294 0.329796 1.36069 3.65035 0.125539 1.39444 3.6478 0.344169 1.35713 -5.08097 -16.814 3.42782 -4.75053 -33.5174 0.585718 -0.0 0.0 -0.0 -2.37466 23.2406 -0.576155 -18.5678 -30.3548 72.5691 0.566332 -15.6713 0.0779374 1.73159 0.0577846 -0.213605 -0.068186 29.0763 10.9967 -0.0 0.0 -0.0 9.4603 14.4876 -18.5205 -7.86129 18.4984 -61.0212 1.6558 39.3567 -0.592192 8.00997 -0.212586 1.00027 3.18545 13.185 -16.0225 0.0 0.0 0.0 27.4092 -0.639181 -4.00921 -41.9753 -0.597191 6.27256 17.823 2.65275 -2.46539 19.3983 -0.0 -0.0 -0.0 0.0 -0.0 15.5792 -16.3199 8.90184 -11.3304 -0.298209 -1.71043 41.5127 -25.6658 5.3338 -7.42656 0.0 0.0 0.0 0.0 0.0 
509.61767149 700.842 -1155.12993319 -168.539234694 -21.902563506 -175.740447739 3.6074 0.357877 1.38437 3.60843 0.26907 1.40433 3.61455 0.0581295 1.42869 3.61182 0.283012 1.40159 -5.16635 -16.4025 2.48363 -4.90076 -32.0744 -0.342799 -0.0 0.0 -0.0 -2.39248 23.302 -0.589659 -17.8809 -31.4091 70.8712 0.566386 -15.6727 0.0779522 1.89897 0.0630269 -0.234341 -0.268314 28.9016 9.8395 -0.0 0.0 -0.0 9.37683 15.6706 -18.281 -8.66656 18.2899 -61.131 1.7966 41.6647 -0.683674 7.72805 -0.20749 0.964621 2.87336 10.6951 -15.0031 0.0 0.0 0.0 27.596 -0.0198592 -4.48638 -46.2994 -0.91536 6.85658 20.4417 3.72306 -2.79007 19.5678 -0.0 -0.0 -0.0 0.0 -0.0 15.9784 -18.7323 8.7715 -14.4552 -0.32047 -2.18931 40.7023 -26.6109 5.29093 -8.54607 0.0 0.0 0.0 0.0 0.0 
509.246261742 700.842 -1154.25009663 -168.572988843 -21.4834102994 -175.831765113 3.6074 0.357877 1.38437 3.60843 0.26907 1.40433 3.61455 0.0581295 1.42869 3.61182 0.283012 1.40159 -5.16635 -16.4025 2.48363 -4.90076 -32.0744 -0.342799 -0.0 0.0 -0.0 -2.39248 23.302 -0.589659 -17.8809 -31.4091 70.8712 0.566386 -15.6727 0.0779522 1.89897 0.0630269 -0.234341 -0.268314 28.9016 9.8395 -0.0 0.0 -0.0 9.37683 15.6706 -18.281 -8.66656 18.2899 -61.131 1.7966 41.6647 -0.683674 7.72805 -0.20749 0.964621 2.87336 10.6951 -15.0031 0.0 0.0 0.0 27.596 -0.0198592 -4.48638 -46.2994 -0.91536 6.85658 20.4417 3.72306 -2.79007 19.5678 -0.0 -0.0 -0.0 0.0 -0.0 15.9784 -18.7323 8.7715 -14.4552 -0.32047 -2.18931 40.7023 -26.6109 5.29093 -8.54607 0.0 0.0 0.0 0.0 0.0 
